HIERARCHY
ROOT Pelvis
{
	OFFSET 0.000000 0.000000 0.000000
	CHANNELS 6 Xposition Yposition Zposition Xrotation Yrotation Zrotation
	JOINT LeftUpLeg_virtual
	{
		OFFSET 0.000000 0.000000 0.000000
		CHANNELS 3 Xrotation Yrotation Zrotation
		JOINT LeftUpLeg
		{
			OFFSET 18.735201 -5.666702 -4.541200
			CHANNELS 3 Xrotation Yrotation Zrotation
			JOINT LeftLeg
			{
				OFFSET -0.021200 -31.938179 0.493100
				CHANNELS 3 Xrotation Yrotation Zrotation
				JOINT LeftFoot
				{
					OFFSET 0.021200 -31.938179 -4.336299
					CHANNELS 3 Xrotation Yrotation Zrotation
					JOINT LeftToeBase
					{
						OFFSET 0.943001 -26.722000 15.023500
						CHANNELS 3 Xrotation Yrotation Zrotation
						End Site
						{
							OFFSET 0 0 0
						}
					}
				}
			}
		}
	}
	JOINT RightUpLeg_virtual
	{
		OFFSET 0.000000 0.000000 0.000000
		CHANNELS 3 Xrotation Yrotation Zrotation
		JOINT RightUpLeg
		{
			OFFSET -18.735201 -5.666702 -4.541200
			CHANNELS 3 Xrotation Yrotation Zrotation
			JOINT RightLeg
			{
				OFFSET 0.018946 -31.938133 0.493100
				CHANNELS 3 Xrotation Yrotation Zrotation
				JOINT RightFoot
				{
					OFFSET -0.018946 -31.938126 -4.336299
					CHANNELS 3 Xrotation Yrotation Zrotation
					JOINT RightToeBase
					{
						OFFSET -0.943001 -26.722004 15.023500
						CHANNELS 3 Xrotation Yrotation Zrotation
						End Site
						{
							OFFSET 0 0 0
						}
					}
				}
			}
		}
	}
	JOINT Hips_virtual
	{
		OFFSET 0.000000 0.000000 0.000000
		CHANNELS 3 Xrotation Yrotation Zrotation
		JOINT Hips
		{
			OFFSET -0.000000 -0.000000 -0.000000
			CHANNELS 3 Xrotation Yrotation Zrotation
			JOINT Spine
			{
				OFFSET 0.000000 10.199997 -0.299500
				CHANNELS 3 Xrotation Yrotation Zrotation
				JOINT Spine1
				{
					OFFSET 0.000000 11.900002 -1.516600
					CHANNELS 3 Xrotation Yrotation Zrotation
					JOINT Spine2
					{
						OFFSET 0.000000 13.600006 -2.842500
						CHANNELS 3 Xrotation Yrotation Zrotation
						JOINT Neck_virtual
						{
							OFFSET 0.000000 0.000000 0.000000
							CHANNELS 3 Xrotation Yrotation Zrotation
							JOINT Neck
							{
								OFFSET 0.000000 9.624100 -2.890100
								CHANNELS 3 Xrotation Yrotation Zrotation
								JOINT Head
								{
									OFFSET 0.000000 14.068802 -1.351900
									CHANNELS 3 Xrotation Yrotation Zrotation
									End Site
									{
										OFFSET 0 0 0
									}
								}
							}
						}
						JOINT LeftShoulder_virtual
						{
							OFFSET 0.000000 0.000000 0.000000
							CHANNELS 3 Xrotation Yrotation Zrotation
							JOINT LeftShoulder
							{
								OFFSET 15.263000 10.923401 -0.547700
								CHANNELS 3 Xrotation Yrotation Zrotation
								JOINT LeftArm
								{
									OFFSET 25.438599 -2.830597 -13.032500
									CHANNELS 3 Xrotation Yrotation Zrotation
									JOINT LeftForeArm
									{
										OFFSET 29.960503 0.000000 0.000000
										CHANNELS 3 Xrotation Yrotation Zrotation
										JOINT LeftHand
										{
											OFFSET 27.849251 0.000000 0.000000
											CHANNELS 3 Xrotation Yrotation Zrotation
											End Site
											{
												OFFSET 0 0 0
											}
										}
									}
								}
							}
						}
						JOINT RightShoulder_virtual
						{
							OFFSET 0.000000 0.000000 0.000000
							CHANNELS 3 Xrotation Yrotation Zrotation
							JOINT RightShoulder
							{
								OFFSET -15.263000 10.923401 -0.547700
								CHANNELS 3 Xrotation Yrotation Zrotation
								JOINT RightArm
								{
									OFFSET -25.438599 -2.830597 -13.032500
									CHANNELS 3 Xrotation Yrotation Zrotation
									JOINT RightForeArm
									{
										OFFSET -29.960503 0.000000 0.000000
										CHANNELS 3 Xrotation Yrotation Zrotation
										JOINT RightHand
										{
											OFFSET -27.849251 0.000000 0.000000
											CHANNELS 3 Xrotation Yrotation Zrotation
											End Site
											{
												OFFSET 0 0 0
											}
										}
									}
								}
							}
						}
					}
				}
			}
		}
	}
}
MOTION
Frames: 13
Frame Time: 0.03333333
1.406288 55.762024 6.736609 0.000000 0.000000 0.000000 -19.384162 -14.937316 4.129746 -67.973155 -0.905609 23.565606 77.692487 -0.840186 -0.094387 19.552904 -2.316171 -6.007048 0.000000 0.000000 0.000000 -27.069775 10.140498 0.607102 -65.530672 3.801488 -15.919984 77.945941 -1.084682 -2.831872 19.016520 -0.260412 6.586390 0.000000 0.000000 0.000000 1.642776 -0.718988 0.297720 4.685329 4.934316 -1.173176 8.652274 0.436594 -0.800767 3.626074 0.499095 -0.805366 0.000000 0.000000 0.000000 1.614803 0.229609 -0.074824 -1.269273 -0.239032 0.256852 0.000000 0.000000 0.000000 2.065978 -0.483190 -0.963670 -0.816607 -11.562906 -7.351604 -3.035371 -21.032393 -52.267893 5.338703 -56.164608 -1.114620 0.000000 0.000000 0.000000 1.992378 -0.611374 0.869549 -0.810018 2.035638 9.150403 0.844839 21.052060 47.697106 7.198383 63.508458 0.228829 0.000000 0.000000 0.000000 
0.291526 55.435692 6.279774 0.000000 0.000000 0.000000 -21.528907 -16.038357 3.094392 -69.918160 -1.214470 22.792464 78.515763 -0.698055 0.261578 20.915653 -2.417467 -5.380003 0.000000 0.000000 0.000000 -28.960415 10.929341 0.950386 -67.357379 4.178886 -15.600659 79.607023 -0.953364 -2.704866 21.181170 -0.012414 6.741770 0.000000 0.000000 0.000000 0.710334 -0.422265 -0.193474 7.528573 6.585559 0.299867 9.196043 -0.085229 -1.199443 3.999848 0.484042 -0.695792 0.000000 0.000000 0.000000 1.864327 0.178933 -0.362761 -1.162998 -0.207177 0.278372 0.000000 0.000000 0.000000 1.942800 -0.583241 -0.963498 -0.123206 -11.466098 -7.141083 -3.458143 -20.426374 -52.330143 6.171591 -56.108208 -0.306590 0.000000 0.000000 0.000000 2.035245 -0.523586 0.801681 -0.336850 1.763376 9.715351 0.615117 22.418194 45.253022 6.661563 66.332673 -0.103396 0.000000 0.000000 0.000000 
0.983812 56.381702 4.815512 0.000000 0.000000 0.000000 -21.892450 -17.175836 2.097419 -70.108750 -1.122170 22.039048 78.366285 -0.316604 0.460613 22.068688 -2.126848 -4.716650 0.000000 0.000000 0.000000 -28.337978 10.447959 0.652129 -66.722062 4.079647 -15.827334 79.475166 -1.286578 -2.612878 22.347546 -0.383229 6.321731 0.000000 0.000000 0.000000 2.435180 -1.004103 0.414235 8.068715 4.159587 -0.813406 10.296786 -0.106074 -1.560953 3.688873 0.505488 -0.434364 0.000000 0.000000 0.000000 2.543643 0.170306 -0.223652 -1.025663 -0.268588 0.338460 0.000000 0.000000 0.000000 2.397465 -0.194481 -0.819607 0.112869 -12.381648 -7.134276 -3.114964 -19.946454 -52.630456 6.644296 -54.108349 -0.226478 0.000000 0.000000 0.000000 2.294725 -0.332398 0.782349 0.185594 1.270184 9.978375 0.636472 24.581567 46.290593 6.033037 66.816373 0.405535 0.000000 0.000000 0.000000 
0.879113 55.896904 5.231596 0.000000 0.000000 0.000000 -21.117743 -17.944442 3.372430 -70.028427 -1.708065 23.372641 79.308673 0.396324 0.649073 22.847548 -1.450716 -3.783023 0.000000 0.000000 0.000000 -29.605100 9.177865 0.881418 -68.072698 3.792969 -15.608359 79.611995 -1.129342 -2.234841 22.558978 -0.370258 7.062179 0.000000 0.000000 0.000000 1.223168 -0.936675 -0.260432 7.588541 1.918607 -1.666630 9.849499 -0.725736 -1.132591 4.219338 0.622760 -0.828081 0.000000 0.000000 0.000000 2.605754 0.037919 -0.453868 -0.979596 -0.305713 0.233012 0.000000 0.000000 0.000000 3.283943 -0.508351 -0.796316 0.415431 -12.663592 -6.065766 -4.209012 -21.348168 -52.586938 6.402085 -56.049656 -0.002719 0.000000 0.000000 0.000000 2.810250 -0.277555 0.704068 0.249588 0.661381 10.709971 0.187215 23.954013 44.595231 6.561437 67.988871 -0.456301 0.000000 0.000000 0.000000 
0.752929 55.837307 3.422422 0.000000 0.000000 0.000000 -22.880106 -19.308465 1.327713 -71.422742 -1.510450 21.925935 79.979883 -0.427695 0.700709 23.349347 -2.435853 -4.506652 0.000000 0.000000 0.000000 -31.295640 9.330315 1.169277 -69.700182 3.940367 -15.334854 79.685304 -1.460266 -2.073937 23.073187 -0.803652 6.888458 0.000000 0.000000 0.000000 2.652326 -0.391481 -0.513245 5.434066 -0.113566 -2.000239 10.977226 -0.284354 -1.665113 4.073811 0.664678 -0.681417 0.000000 0.000000 0.000000 3.481553 0.133488 -0.577893 -0.843705 -0.241575 0.241266 0.000000 0.000000 0.000000 3.894047 -0.675819 -0.842381 0.640730 -13.159754 -6.278145 -6.062470 -23.259933 -53.036894 5.569563 -59.369425 -0.545212 0.000000 0.000000 0.000000 2.751987 -0.202993 0.767153 0.330182 0.886575 10.252315 -0.670909 21.766114 42.755837 4.843602 67.479325 0.470356 0.000000 0.000000 0.000000 
1.034992 56.112091 4.359116 0.000000 0.000000 0.000000 -23.298962 -19.508487 0.341720 -71.633077 -1.211154 21.176954 80.142031 -0.383962 0.571993 23.404634 -2.327656 -4.690789 0.000000 0.000000 0.000000 -30.811393 12.098600 0.740285 -69.167352 4.912890 -15.983346 78.835601 -1.382156 -2.362014 22.408672 -0.644373 6.464335 0.000000 0.000000 0.000000 0.786535 -1.028809 0.119855 5.951461 6.015104 -0.295602 9.082867 -0.658429 -1.830194 4.102943 0.940756 -0.858614 0.000000 0.000000 0.000000 3.180561 0.323184 -0.559436 -0.599621 -0.320961 0.297719 0.000000 0.000000 0.000000 3.941249 -0.783874 -1.195296 0.854699 -14.466173 -6.573443 -7.426184 -22.215166 -53.865276 5.408818 -59.771607 -0.788048 0.000000 0.000000 0.000000 3.206773 -0.235283 0.669941 0.682191 0.017647 9.919508 -2.724708 23.415234 41.828826 6.045786 66.140724 -0.722981 0.000000 0.000000 0.000000 
1.474242 55.933273 3.803501 0.000000 0.000000 0.000000 -22.824189 -21.490253 0.030401 -71.053543 -1.513451 20.972779 79.678986 -0.243628 0.636409 23.276202 -2.193476 -4.488405 0.000000 0.000000 0.000000 -31.407187 9.376429 0.044186 -69.966914 4.478880 -16.396745 78.194328 -1.110812 -1.873885 21.755858 -0.618400 7.533286 0.000000 0.000000 0.000000 1.729190 -0.438906 0.579643 6.095336 4.668019 1.411946 9.706460 -0.324206 -2.447393 4.940429 0.348110 -1.260342 0.000000 0.000000 0.000000 4.123976 0.255171 -0.568227 -0.337581 -0.416712 0.280220 0.000000 0.000000 0.000000 4.452805 -0.537986 -1.257981 1.160095 -14.847291 -6.523781 -4.076958 -22.672736 -52.046861 6.393437 -59.019514 -0.297825 0.000000 0.000000 0.000000 3.827437 0.011375 0.808734 1.193077 -0.159028 10.563567 -5.572979 23.855484 42.224424 3.616708 66.577631 1.216733 0.000000 0.000000 0.000000 
1.836357 56.461685 4.714979 0.000000 0.000000 0.000000 -22.867002 -20.523055 0.400041 -71.259719 -1.447127 21.260615 80.433722 -0.048162 0.617446 24.297718 -1.979880 -4.350020 0.000000 0.000000 0.000000 -31.241026 9.017608 -0.992839 -69.779760 4.739700 -17.054596 78.505648 -0.978707 -1.393400 22.525776 -0.601451 8.351699 0.000000 0.000000 0.000000 1.786144 -2.132013 0.550537 5.615411 4.871519 1.873133 10.207352 -0.172194 -2.221360 4.558807 0.515252 -1.512333 0.000000 0.000000 0.000000 4.462725 0.214583 -0.763808 -0.247461 -0.587465 0.344687 0.000000 0.000000 0.000000 5.089379 -0.684135 -1.398563 1.294685 -14.684147 -6.371900 -3.544775 -22.114138 -51.566617 6.733654 -60.332352 0.571601 0.000000 0.000000 0.000000 4.817717 0.169661 0.664636 1.418385 -0.393514 11.070552 -6.072414 24.588536 42.670651 2.430528 69.184550 2.656896 0.000000 0.000000 0.000000 
1.486267 56.138184 3.609970 0.000000 0.000000 0.000000 -22.951801 -22.423088 -0.171398 -71.337303 -1.692115 21.015505 80.080191 -0.116272 0.390553 23.743689 -1.915609 -4.801065 0.000000 0.000000 0.000000 -30.961200 8.358109 -1.135969 -69.583297 4.554041 -17.236172 78.736433 -0.566291 -1.238511 22.565941 -0.170638 9.038072 0.000000 0.000000 0.000000 2.710007 -0.911860 0.870923 5.382987 5.386489 1.112198 10.631142 0.002908 -2.501604 4.973531 0.647224 -1.474599 0.000000 0.000000 0.000000 4.936065 0.367587 -0.757972 -0.030273 -0.616468 0.353888 0.000000 0.000000 0.000000 5.169074 -0.432764 -1.516498 1.404944 -14.767649 -6.343005 -6.121574 -22.016459 -50.415026 5.745028 -60.783240 0.414537 0.000000 0.000000 0.000000 5.265790 0.341122 0.688349 2.085882 0.291721 10.774954 -7.194587 25.912088 41.345840 2.549219 68.214657 2.098972 0.000000 0.000000 0.000000 
1.581939 56.178989 2.839136 0.000000 0.000000 0.000000 -22.789160 -21.443574 0.362907 -70.993307 -1.697122 21.152876 79.386285 -0.246978 0.295389 23.231451 -1.993273 -5.095201 0.000000 0.000000 0.000000 -30.234413 8.437239 -0.294890 -68.850206 4.096992 -16.592497 78.474960 -0.736158 -0.929046 22.794317 -0.502849 9.320237 0.000000 0.000000 0.000000 3.003226 -0.210236 1.236675 5.763427 5.561341 1.679037 10.592850 -0.146787 -2.337550 4.977066 0.533757 -1.439699 0.000000 0.000000 0.000000 5.364518 0.301170 -0.919490 0.163487 -0.633715 0.247259 0.000000 0.000000 0.000000 5.599286 -0.518646 -1.466884 1.721719 -14.803347 -6.427728 -7.925036 -22.617823 -49.683581 4.779214 -62.718984 0.219176 0.000000 0.000000 0.000000 5.708060 0.412877 0.751636 2.171724 -0.089087 10.395986 -9.416765 26.414891 41.518787 1.673417 70.479602 2.620632 0.000000 0.000000 0.000000 
1.341472 56.516296 2.838263 0.000000 0.000000 0.000000 -22.168644 -21.800504 0.028273 -70.238537 -1.491736 20.807184 79.017946 -0.074223 0.534465 22.912167 -1.875550 -4.590868 0.000000 0.000000 0.000000 -28.826376 9.613999 -0.039160 -67.339696 4.121279 -16.420963 77.050838 -0.864199 -0.777614 22.122038 -0.794639 9.390241 0.000000 0.000000 0.000000 3.125287 0.542833 1.107585 5.855432 4.488822 1.330744 11.040282 0.060006 -2.529967 5.176197 0.620050 -1.414951 0.000000 0.000000 0.000000 5.859958 0.242646 -0.968862 0.384318 -0.642001 0.277564 0.000000 0.000000 0.000000 6.059595 -0.530350 -1.501890 1.807452 -14.711246 -6.412302 -11.164079 -23.255049 -49.028922 4.481562 -64.895765 0.875200 0.000000 0.000000 0.000000 6.222879 0.608111 0.728336 2.774499 0.392206 10.776179 -11.043760 27.193468 40.221396 0.337318 72.034815 3.012591 0.000000 0.000000 0.000000 
1.323148 56.831306 2.914656 0.000000 0.000000 0.000000 -21.554305 -21.934726 -0.233871 -69.658217 -1.235169 20.611798 78.524916 0.170489 0.284833 22.475373 -1.454504 -4.760855 0.000000 0.000000 0.000000 -28.458118 10.141891 -0.353602 -67.054692 4.355263 -16.830126 77.176869 -0.873686 -0.895222 22.135028 -0.743708 9.171658 0.000000 0.000000 0.000000 3.133374 0.030862 1.323415 5.763442 5.978544 0.985465 11.175651 0.227658 -2.233612 5.253539 0.577563 -1.348679 0.000000 0.000000 0.000000 6.361682 0.341168 -0.970488 0.525430 -0.621482 0.306694 0.000000 0.000000 0.000000 6.472458 -0.514408 -1.406554 1.831091 -15.102392 -6.158485 -13.296245 -23.935501 -48.474508 2.978597 -66.601024 0.435634 0.000000 0.000000 0.000000 6.881490 0.771193 0.781439 2.913708 0.711714 10.862336 -12.603675 28.303836 39.220760 0.141108 73.635580 2.624946 0.000000 0.000000 0.000000 
1.311346 56.749855 3.326239 0.000000 0.000000 0.000000 -21.647523 -22.199484 -0.100844 -69.695462 -1.408610 20.687185 78.709351 -0.101945 0.337025 22.486945 -1.788661 -4.955351 0.000000 0.000000 0.000000 -28.651086 10.503905 -0.155086 -67.156804 4.408562 -16.603196 77.162887 -0.921640 -0.905292 22.458746 -0.769830 9.067115 0.000000 0.000000 0.000000 2.675561 1.095209 1.117352 5.727982 6.139345 0.653003 11.179313 0.555537 -2.406507 5.350122 0.578460 -1.465650 0.000000 0.000000 0.000000 6.857096 0.507446 -1.039894 0.874155 -0.536643 0.331341 0.000000 0.000000 0.000000 7.027015 -0.422019 -1.300783 2.245728 -15.268049 -5.262312 -15.474851 -25.048366 -47.647178 3.286823 -67.762921 1.365868 0.000000 0.000000 0.000000 7.289408 0.844706 0.777182 3.470791 0.974430 10.851057 -14.751223 29.485496 38.140367 -0.546085 74.416905 2.630152 0.000000 0.000000 0.000000 
